<?xml version="1.0" standalone="no"?>
<!DOCTYPE svg PUBLIC "-//W3C//DTD SVG 20010904//EN"
 "http://www.w3.org/TR/2001/REC-SVG-20010904/DTD/svg10.dtd">
<svg version="1.0" xmlns="http://www.w3.org/2000/svg"
 width="600.000000pt" height="150.000000pt" viewBox="0 0 600.000000 150.000000"
 preserveAspectRatio="xMidYMid meet">
<metadata>
Created by potrace 1.15, written by Peter Selinger 2001-2017
</metadata>
<g transform="translate(0.000000,150.000000) scale(0.100000,-0.100000)"
fill="#000000" stroke="none">
<path d="M0 750 l0 -750 140 0 140 0 0 60 c0 41 6 72 20 97 11 21 20 47 20 59
0 11 16 35 35 52 28 26 42 32 77 30 l43 -1 -37 -4 c-24 -3 -38 -9 -38 -18 0
-14 18 -22 66 -28 28 -4 66 -41 64 -63 -5 -45 -1 -50 35 -46 19 2 43 1 52 -3
10 -5 42 -9 71 -10 39 -2 52 1 52 11 0 9 11 14 29 14 16 0 31 5 33 12 3 7 7 5
11 -6 4 -9 3 -15 -2 -12 -5 3 -8 -11 -8 -32 1 -20 -2 -54 -6 -74 l-8 -38 164
0 165 0 21 87 c50 199 118 377 172 455 24 33 24 36 -2 40 -48 7 -46 27 20 214
35 99 67 184 72 190 12 14 137 15 164 2 28 -15 55 -49 55 -74 0 -11 -16 -67
-35 -124 -19 -57 -33 -105 -31 -107 22 -22 81 88 78 144 -3 42 12 63 44 63 16
0 28 -8 36 -25 6 -14 15 -25 19 -25 20 0 69 -54 69 -76 0 -40 20 -27 45 30 13
30 30 58 37 62 7 4 45 9 85 10 94 3 103 -7 74 -77 -26 -63 -27 -82 -3 -77 9 2
16 10 14 16 -1 7 2 12 7 12 5 0 17 20 27 45 24 64 55 86 118 84 28 -1 58 1 67
5 10 4 23 1 32 -9 14 -14 14 -20 1 -63 -23 -74 -27 -102 -16 -102 15 0 28 21
46 77 22 68 54 93 116 93 65 0 95 -25 93 -77 -1 -52 -5 -66 -23 -80 -8 -6 -12
-14 -9 -17 11 -11 39 5 40 23 0 9 14 45 32 81 l32 65 54 2 c110 4 133 -37 90
-152 -12 -31 -18 -59 -15 -62 13 -14 39 11 60 59 23 52 23 53 4 60 -34 13 -16
46 33 62 10 3 26 32 39 73 28 83 36 95 69 91 34 -4 38 -36 12 -111 l-20 -58
36 3 c36 3 37 4 61 76 26 78 48 100 82 82 11 -6 20 -19 20 -30 0 -10 -22 -82
-49 -160 -39 -112 -46 -143 -35 -147 26 -10 46 7 67 57 21 51 41 66 71 54 22
-9 20 -28 -10 -80 -37 -63 -78 -94 -124 -94 -58 0 -94 35 -92 88 1 22 6 52 12
66 9 25 8 26 -25 26 -32 0 -35 -3 -54 -55 -11 -30 -23 -65 -27 -79 -9 -39 -23
-44 -103 -43 -68 2 -75 4 -94 29 -20 27 -20 29 -3 85 31 105 32 107 8 94 -13
-7 -32 -43 -52 -98 -17 -48 -36 -93 -42 -100 -17 -21 -59 -16 -65 7 -3 11 -10
20 -15 20 -5 0 -21 -9 -35 -20 -15 -12 -41 -20 -62 -20 -20 0 -47 -8 -60 -17
-14 -9 -21 -11 -16 -4 4 8 -4 6 -19 -4 -15 -10 -33 -14 -43 -11 -10 4 -14 4
-10 0 9 -9 -22 -44 -39 -44 -7 0 -22 -15 -33 -33 -26 -42 -63 -62 -117 -62
-23 0 -40 -3 -37 -7 2 -5 -3 -8 -12 -8 -8 0 -33 -11 -55 -25 -22 -14 -43 -25
-48 -25 -8 0 -124 188 -137 223 -4 9 -18 17 -31 17 -13 0 -34 10 -45 21 -17
17 -20 29 -16 63 9 63 -5 73 -30 22 -24 -48 -75 -79 -121 -75 -15 2 -38 -4
-51 -13 l-24 -17 25 -38 c77 -115 198 -313 198 -323 0 -7 -8 -10 -20 -7 -11 3
-18 2 -16 -2 3 -4 -57 -38 -132 -75 -75 -37 -157 -79 -182 -93 -25 -14 -61
-32 -80 -39 -29 -11 360 -13 2353 -14 l2387 0 0 750 0 750 -3000 0 -3000 0 0
-750z m1910 610 c0 -5 -5 -10 -11 -10 -6 0 -8 -9 -4 -20 4 -11 2 -20 -4 -20
-6 0 -25 -16 -43 -35 -17 -20 -58 -49 -90 -65 -33 -17 -69 -39 -81 -51 -12
-11 -33 -22 -47 -25 -14 -3 -38 -11 -53 -19 -36 -19 -71 -20 -62 -2 4 6 -1 3
-10 -8 -16 -20 -16 -20 -36 4 -26 31 -21 42 27 67 22 11 56 30 75 41 83 51
112 64 132 58 16 -5 18 -4 8 3 -15 11 2 27 19 17 6 -3 10 -1 10 5 0 6 5 8 10
5 6 -3 10 -1 10 5 0 6 10 10 23 9 12 -1 41 -1 65 -1 39 2 42 4 32 21 -7 14 -6
21 3 24 20 9 27 8 27 -3z m2040 -357 c0 -5 22 -8 50 -8 38 0 55 -5 72 -23 29
-29 30 -87 2 -127 -19 -27 -20 -33 -8 -60 7 -16 11 -45 7 -62 -13 -79 25 -8
77 142 15 44 31 88 35 97 14 35 65 32 65 -4 0 -11 -21 -82 -46 -159 -26 -77
-44 -143 -40 -146 16 -16 43 19 72 92 39 95 59 116 115 122 83 9 127 -63 84
-137 -18 -32 -18 -40 -2 -40 22 0 43 31 61 87 25 76 50 92 142 91 53 -1 77 -5
81 -14 3 -7 -11 -58 -31 -114 -20 -55 -32 -100 -27 -100 13 0 71 69 71 85 0
15 35 30 50 20 43 -26 -59 -162 -136 -181 -17 -4 -28 -20 -39 -54 -18 -54 -37
-75 -83 -91 -68 -24 -145 35 -123 94 12 30 57 67 83 67 18 0 18 2 -4 28 -26
32 -66 32 -107 1 -27 -22 -100 -26 -119 -7 -10 10 -17 10 -32 0 -29 -18 -97
-15 -117 6 -21 20 -66 16 -125 -11 -46 -21 -80 -22 -119 -2 -27 14 -31 14 -46
0 -22 -23 -47 -15 -51 17 -4 30 102 341 131 386 9 13 57 17 57 5z m-415 -143
c16 -18 17 -23 5 -46 -12 -21 -12 -29 0 -47 7 -12 19 -40 25 -62 l12 -40 23
38 c22 37 60 51 75 27 13 -20 -39 -94 -83 -118 -51 -28 -153 -35 -195 -13 -48
26 -59 104 -18 134 9 6 30 35 45 62 52 90 76 104 111 65z"/>
</g>
</svg>
